<svg width="39" height="39" viewBox="0 0 39 39" fill="none" xmlns="http://www.w3.org/2000/svg">
<path d="M0 28.7907V10.1974C0 4.58804 4.58963 4.19617e-05 10.1995 4.19617e-05H28.7911C34.4006 4.19617e-05 38.9907 4.58804 38.9907 10.1974V28.7907C38.9907 34.4 34.4006 38.9894 28.7911 38.9894H22.5411L19.2683 38.192L16.4495 38.9894H10.1995C4.58963 38.9894 0 34.4 0 28.7907Z" fill="url(#paint0_linear_235_97)"/>
<path d="M27.0844 25.7707L27.9479 20.1347H22.5411V16.4774C22.5411 14.9361 23.2964 13.4334 25.7183 13.4334H28.1766V8.63605C28.1766 8.63605 25.9459 8.25471 23.8126 8.25471C19.3594 8.25471 16.4495 10.9534 16.4495 15.8387V20.1347H11.499V25.7707H16.4495V38.9894H22.5411V25.7707H27.0844Z" fill="white"/>
<defs>
<linearGradient id="paint0_linear_235_97" x1="35.9944" y1="2.99471" x2="2.99615" y2="35.993" gradientUnits="userSpaceOnUse">
<stop stop-color="#3F6ABC"/>
<stop offset="1" stop-color="#2D368C"/>
</linearGradient>
</defs>
</svg>
