<svg width="39" height="39" viewBox="0 0 39 39" fill="none" xmlns="http://www.w3.org/2000/svg">
<path d="M0 28.7921V10.2C0 4.59054 4.58963 7.62939e-06 10.1995 7.62939e-06H28.7911C34.4006 7.62939e-06 38.9907 4.59054 38.9907 10.2V28.7921C38.9907 34.4015 34.4006 38.9905 28.7911 38.9905H10.1995C4.58963 38.9905 0 34.4015 0 28.7921Z" fill="url(#paint0_linear_235_87)"/>
<path d="M13.2078 9.83748C14.4156 9.83748 15.3943 10.8177 15.3943 12.0229C15.3943 13.2281 14.4156 14.2093 13.2078 14.2093C11.9974 14.2093 11.0192 13.2281 11.0192 12.0229C11.0192 10.8177 11.9974 9.83748 13.2078 9.83748ZM11.3192 15.8656H15.0954V27.9937H11.3192V15.8656Z" fill="white"/>
<path d="M17.4615 15.8656H21.0776V17.5239H21.1266C21.6312 16.5692 22.861 15.564 24.6968 15.564C28.514 15.564 29.2178 18.0749 29.2178 21.3416V27.9937H25.4511V22.0963C25.4511 20.6896 25.423 18.8801 23.4911 18.8801C21.5282 18.8801 21.2292 20.4135 21.2292 21.9937V27.9937H17.4615V15.8656Z" fill="white"/>
<defs>
<linearGradient id="paint0_linear_235_87" x1="35.9944" y1="2.99614" x2="2.99616" y2="35.9944" gradientUnits="userSpaceOnUse">
<stop stop-color="#1679B3"/>
<stop offset="1" stop-color="#2C54AD"/>
</linearGradient>
</defs>
</svg>
