<svg width="39" height="39" viewBox="0 0 39 39" fill="none" xmlns="http://www.w3.org/2000/svg">
<path d="M0 28.7916L0.00107422 10.1995C0.00107422 4.59014 4.59014 0 10.1995 0H28.7925C34.4019 0 38.9912 4.59014 38.9912 10.1995V28.7916C38.9912 34.4011 34.4019 38.9907 28.7925 38.9907H10.1995C4.59014 38.9907 0.00106667 34.4011 0 28.7916Z" fill="url(#paint0_linear_235_78)"/>
<path d="M15.3619 26.6213L15.7459 26.8505C17.1552 27.6907 18.7579 28.1344 20.3819 28.1344C25.3885 28.1344 29.4632 24.0598 29.4632 19.0536C29.4632 14.0458 25.3885 9.97131 20.3819 9.97131C15.3752 9.97131 11.3005 14.0458 11.3005 19.0536C11.3005 20.7073 11.7592 22.3349 12.6285 23.762L12.8645 24.1484L11.9565 27.5344L15.3619 26.6213ZM8.96307 30.5276L10.588 24.4625C9.66828 22.802 9.18387 20.9416 9.18387 19.0536C9.18387 12.8792 14.2072 7.85572 20.3819 7.85572C26.5565 7.85572 31.5792 12.8792 31.5792 19.0536C31.5792 25.2281 26.5565 30.2516 20.3819 30.2516C18.5272 30.2516 16.6979 29.7823 15.0592 28.8943L8.96307 30.5276Z" fill="white"/>
<path fill-rule="evenodd" clip-rule="evenodd" d="M24.5472 20.6109C24.0859 20.3349 23.4872 20.0276 22.9432 20.2489C22.5272 20.4192 22.2606 21.0718 21.9912 21.4052C21.8526 21.5754 21.6872 21.6016 21.4752 21.5172C19.9112 20.8932 18.7126 19.8489 17.8499 18.4114C17.7032 18.1874 17.7299 18.012 17.9059 17.8046C18.1672 17.4973 18.4939 17.1484 18.5646 16.7358C18.6352 16.3218 18.4406 15.8385 18.2699 15.4702C18.0512 14.9989 17.8072 14.3281 17.3366 14.0614C16.9032 13.8166 16.3312 13.9546 15.9459 14.2682C15.2792 14.8114 14.9579 15.6614 14.9672 16.5041C14.9699 16.7437 14.9992 16.9833 15.0552 17.2134C15.1899 17.7697 15.4472 18.289 15.7366 18.7828C15.9539 19.1552 16.1912 19.5156 16.4472 19.8634C17.2832 20.9989 18.3232 21.9858 19.5286 22.724C20.1299 23.0926 20.7792 23.4166 21.4499 23.638C22.2032 23.8869 22.8739 24.1458 23.6872 23.991C24.5392 23.8297 25.3779 23.3036 25.7152 22.4833C25.8166 22.2396 25.8659 21.9686 25.8099 21.7125C25.6939 21.1822 24.9766 20.8672 24.5472 20.6109Z" fill="white"/>
<defs>
<linearGradient id="paint0_linear_235_78" x1="35.9952" y1="2.99613" x2="2.99694" y2="35.9944" gradientUnits="userSpaceOnUse">
<stop stop-color="#3CBA64"/>
<stop offset="1" stop-color="#24B263"/>
</linearGradient>
</defs>
</svg>
